<svg id="Слой_2" data-name="Слой 2" xmlns="http://www.w3.org/2000/svg" viewBox="0 0 179.45 54.67"><defs><style>.cls-1{fill:#fff;}</style></defs><title>logo</title><path class="cls-1" d="M-440.16-5395a27.33,27.33,0,0,0-27.33,27.33,27.33,27.33,0,0,0,27.33,27.33,27.33,27.33,0,0,0,27.33-27.33A27.33,27.33,0,0,0-440.16-5395Zm8,21h-2.87V-5376h-7.12v7h8v2.88h-8v7.08h3v3h-9v-2.87h2V-5376h-2v-3h16v4.92Z" transform="translate(467.49 5395)"/><path class="cls-1" d="M-401.61-5384.46h7.83v1.58h-6v4.83h5.5v1.55h-5.5v6.58h-1.88v-14.54Z" transform="translate(467.49 5395)"/><path class="cls-1" d="M-391.1-5384.27a19.54,19.54,0,0,1,3.6-.3c2,0,3.3.37,4.21,1.19a3.62,3.62,0,0,1,1.14,2.76,3.82,3.82,0,0,1-2.74,3.71v0.06a3.62,3.62,0,0,1,2.14,2.93,23.12,23.12,0,0,0,1.12,4h-1.94a18.84,18.84,0,0,1-1-3.47c-0.43-2-1.21-2.76-2.91-2.83h-1.77v6.3h-1.88v-14.35Zm1.88,6.62h1.92c2,0,3.28-1.1,3.28-2.76,0-1.88-1.36-2.7-3.34-2.72a7.72,7.72,0,0,0-1.86.17v5.31Z" transform="translate(467.49 5395)"/><path class="cls-1" d="M-372-5376.74h-5.65v5.24h6.3v1.57h-8.18v-14.54h7.85v1.58h-6v4.6H-372v1.55Z" transform="translate(467.49 5395)"/><path class="cls-1" d="M-361.34-5376.74H-367v5.24h6.3v1.57h-8.18v-14.54H-361v1.58h-6v4.6h5.65v1.55Z" transform="translate(467.49 5395)"/><path class="cls-1" d="M-358.25-5384.46h1.88v13h6.21v1.57h-8.09v-14.54Z" transform="translate(467.49 5395)"/><path class="cls-1" d="M-345.71-5374.49l-1.51,4.57h-1.94l4.94-14.54H-342l5,14.54h-2l-1.55-4.57h-5.16Zm4.77-1.47-1.42-4.19c-0.32-.95-0.54-1.81-0.76-2.65h0c-0.22.86-.45,1.75-0.73,2.63l-1.42,4.21h4.38Z" transform="translate(467.49 5395)"/><path class="cls-1" d="M-334.85-5369.92v-14.54h2l4.66,7.36a41.19,41.19,0,0,1,2.61,4.73l0,0c-0.17-1.94-.22-3.71-0.22-6v-6.08h1.77v14.54h-1.9l-4.62-7.38a46.17,46.17,0,0,1-2.72-4.85l-0.06,0c0.11,1.83.15,3.58,0.15,6v6.21h-1.77Z" transform="translate(467.49 5395)"/><path class="cls-1" d="M-310.49-5370.39a9.32,9.32,0,0,1-3.84.69c-4.1,0-7.18-2.59-7.18-7.36a7.24,7.24,0,0,1,7.59-7.64,7.8,7.8,0,0,1,3.45.65l-0.45,1.53a6.84,6.84,0,0,0-2.93-.6c-3.41,0-5.67,2.18-5.67,6,0,3.56,2,5.85,5.59,5.85a7.51,7.51,0,0,0,3.06-.6Z" transform="translate(467.49 5395)"/><path class="cls-1" d="M-300.6-5376.74h-5.65v5.24h6.3v1.57h-8.18v-14.54h7.85v1.58h-6v4.6h5.65v1.55Z" transform="translate(467.49 5395)"/><path class="cls-1" d="M-297.52-5384.27a19.54,19.54,0,0,1,3.6-.3c2,0,3.3.37,4.21,1.19a3.62,3.62,0,0,1,1.14,2.76,3.82,3.82,0,0,1-2.74,3.71v0.06a3.62,3.62,0,0,1,2.14,2.93,23.12,23.12,0,0,0,1.12,4H-290a18.84,18.84,0,0,1-1-3.47c-0.43-2-1.21-2.76-2.91-2.83h-1.77v6.3h-1.88v-14.35Zm1.88,6.62h1.92c2,0,3.28-1.1,3.28-2.76,0-1.88-1.36-2.7-3.34-2.72a7.72,7.72,0,0,0-1.86.17v5.31Z" transform="translate(467.49 5395)"/><path class="cls-1" d="M-391.45-5348.81a9.32,9.32,0,0,1-3.84.69c-4.1,0-7.18-2.59-7.18-7.36a7.24,7.24,0,0,1,7.59-7.64,7.8,7.8,0,0,1,3.45.65l-0.45,1.53a6.84,6.84,0,0,0-2.93-.6c-3.41,0-5.67,2.18-5.67,6,0,3.56,2,5.85,5.59,5.85a7.51,7.51,0,0,0,3.06-.6Z" transform="translate(467.49 5395)"/><path class="cls-1" d="M-377.12-5355.76c0,5-3,7.66-6.75,7.66s-6.54-3-6.54-7.38c0-4.62,2.87-7.64,6.75-7.64S-377.12-5360.07-377.12-5355.76Zm-11.28.24c0,3.11,1.68,5.89,4.64,5.89s4.66-2.74,4.66-6c0-2.89-1.51-5.91-4.64-5.91S-388.4-5358.71-388.4-5355.52Z" transform="translate(467.49 5395)"/><path class="cls-1" d="M-374.67-5362.68a26.92,26.92,0,0,1,4-.3c2.7,0,4.62.63,5.89,1.81a6.7,6.7,0,0,1,2,5.22,7.69,7.69,0,0,1-2.09,5.65c-1.36,1.36-3.6,2.09-6.43,2.09a30.28,30.28,0,0,1-3.41-.17v-14.3Zm1.88,12.86a11.84,11.84,0,0,0,1.9.11c4,0,6.19-2.24,6.19-6.17,0-3.43-1.92-5.61-5.89-5.61a10.66,10.66,0,0,0-2.2.19v11.48Z" transform="translate(467.49 5395)"/><path class="cls-1" d="M-352.77-5355.15h-5.65v5.24h6.3v1.58h-8.18v-14.54h7.85v1.58h-6v4.6h5.65v1.55Z" transform="translate(467.49 5395)"/><path class="cls-1" d="M-349.68-5362.68a19.54,19.54,0,0,1,3.6-.3c2,0,3.3.37,4.21,1.19a3.62,3.62,0,0,1,1.14,2.76,3.82,3.82,0,0,1-2.74,3.71v0.06a3.62,3.62,0,0,1,2.14,2.93,23.12,23.12,0,0,0,1.12,4h-1.94a18.87,18.87,0,0,1-1-3.47c-0.43-2-1.21-2.76-2.91-2.83h-1.77v6.3h-1.88v-14.35Zm1.88,6.62h1.92c2,0,3.28-1.1,3.28-2.76,0-1.88-1.36-2.7-3.34-2.72a7.71,7.71,0,0,0-1.86.17v5.31Z" transform="translate(467.49 5395)"/><text x="467.49" y="5395"/></svg>